<svg width="241" height="271" viewBox="0 0 241 271" fill="none" xmlns="http://www.w3.org/2000/svg">
<path d="M240.36 102.206V178.324C240.36 197.592 230.078 215.403 213.388 225.037L147.471 263.096C130.782 272.73 110.218 272.73 93.5284 263.096L27.6114 225.037C10.9219 215.403 0.639893 197.592 0.639893 178.324V102.206C0.639893 82.9379 10.9219 65.1274 27.6114 55.4935L93.5284 17.4343C110.218 7.80034 130.782 7.80034 147.471 17.4343L213.388 55.4935C230.078 65.1274 240.36 82.9379 240.36 102.206Z" fill="#006FD6"/>
<path d="M240.36 92.3546V168.473C240.36 187.741 230.078 205.551 213.388 215.185L147.471 253.245C130.782 262.879 110.218 262.879 93.5284 253.245L27.6114 215.185C10.9219 205.551 0.639893 187.741 0.639893 168.473V92.3546C0.639893 73.0868 10.9219 55.2763 27.6114 45.6424L93.5284 7.58314C110.218 -2.05078 130.782 -2.05078 147.471 7.58314L213.388 45.6424C230.078 55.2763 240.36 73.0868 240.36 92.3546Z" fill="#148BF9"/>
<path d="M240.36 92.3546V124.399H0.639893V92.3546C0.639893 73.0868 10.9219 55.2763 27.6114 45.6424L93.5284 7.58314C110.218 -2.05078 130.782 -2.05078 147.471 7.58314L213.388 45.6424C230.078 55.2763 240.36 73.0868 240.36 92.3546Z" fill="#86DFF9"/>
<path d="M120.5 236.131C115.312 236.131 110.193 234.761 105.699 232.166L39.7816 194.106C30.6522 188.837 24.9804 179.014 24.9804 168.47V92.3546C24.9804 81.8134 30.6522 71.9903 39.7816 66.7179L105.699 28.6586C110.193 26.0627 115.312 24.693 120.5 24.693C125.688 24.693 130.806 26.0627 135.301 28.6586L201.218 66.7179C210.348 71.9903 216.019 81.8099 216.019 92.3546V168.47C216.019 179.011 210.348 188.834 201.218 194.106L135.301 232.162C130.806 234.758 125.688 236.128 120.5 236.128V236.131Z" fill="#42C8FF"/>
<g style="mix-blend-mode:screen">
<path d="M170.715 49.1106C179.985 54.3514 191.805 61.1162 201.015 66.4271C209.696 71.2406 215.574 80.6503 216.072 90.568C216.181 92.1514 216.086 94.3445 216.11 95.9419C216.1 99.4207 216.04 108.473 216.019 112.05C215.998 108.41 215.942 99.4417 215.928 95.9419L215.918 93.2585C216.233 82.5035 210.271 71.9237 200.857 66.6969C191.661 61.379 179.873 54.5161 170.712 49.1141L170.715 49.1106Z" fill="white"/>
</g>
<g style="mix-blend-mode:screen">
<path d="M65.6672 209.055C58.4225 204.935 47.8462 198.888 40.6575 194.747C32.1026 190.225 25.9964 181.397 25.012 171.742C24.6477 168.382 24.9244 163.614 24.8579 160.205C24.8684 154.474 24.9209 142.889 24.9805 137.154C25.0681 145.492 25.0926 157.669 25.1171 165.965C24.4935 177.834 30.2249 188.855 40.7696 194.548C47.9338 198.703 58.4995 204.84 65.6637 209.051L65.6672 209.055Z" fill="white"/>
</g>
<path d="M210.341 92.3546V168.473C210.341 176.993 205.755 184.928 198.377 189.191L132.46 227.247C128.831 229.345 124.69 230.452 120.496 230.452C116.303 230.452 112.169 229.345 108.536 227.247L42.6193 189.188C35.2415 184.928 30.6557 176.993 30.6557 168.473V92.3546C30.6557 83.8347 35.2415 75.8999 42.6193 71.64L108.536 33.5807C112.166 31.4823 116.307 30.3752 120.496 30.3752C124.686 30.3752 128.827 31.4823 132.46 33.5807L198.377 71.64C205.755 75.8999 210.341 83.8347 210.341 92.3546Z" fill="#006FD6"/>
<path d="M210.341 98.5063V168.477C210.341 176.997 205.755 184.931 198.377 189.195L132.46 227.251C128.831 229.349 124.69 230.456 120.496 230.456C116.303 230.456 112.169 229.349 108.536 227.251L42.6193 189.191C35.2415 184.931 30.6557 176.997 30.6557 168.477V98.5063C30.6557 89.9864 35.2415 82.0481 42.6193 77.7881L108.536 39.7324C112.166 37.634 116.307 36.5269 120.496 36.5269C124.686 36.5269 128.827 37.634 132.46 39.7324L198.377 77.7881C205.755 82.0481 210.341 89.9864 210.341 98.5063Z" fill="#13B1FF"/>
<path d="M177.883 97.613C175.168 92.9081 170.302 90.0985 164.868 90.0985H76.1313C70.6977 90.0985 65.8318 92.9046 63.1167 97.613C60.3982 102.318 60.3982 107.934 63.1167 112.638L116.103 204.42C116.121 204.444 116.138 204.469 116.156 204.493C116.236 204.63 116.331 204.77 116.422 204.9C116.454 204.942 116.489 204.984 116.52 205.026C116.646 205.184 116.772 205.334 116.913 205.478C116.92 205.485 116.934 205.495 116.941 205.502C117.074 205.632 117.214 205.755 117.357 205.867C117.403 205.902 117.445 205.937 117.491 205.968C117.617 206.063 117.746 206.147 117.879 206.228C117.921 206.252 117.957 206.277 117.999 206.298C118.174 206.399 118.356 206.494 118.545 206.571H118.549C118.731 206.648 118.916 206.707 119.109 206.767C119.158 206.778 119.207 206.792 119.256 206.802C119.41 206.837 119.565 206.872 119.719 206.897C119.771 206.904 119.824 206.914 119.88 206.921C120.079 206.946 120.286 206.963 120.493 206.963C120.7 206.963 120.906 206.946 121.106 206.921C121.162 206.914 121.215 206.904 121.267 206.897C121.421 206.872 121.575 206.841 121.73 206.802C121.779 206.792 121.828 206.778 121.877 206.767C122.066 206.711 122.255 206.648 122.437 206.571H122.441C122.63 206.494 122.808 206.399 122.987 206.298C123.029 206.277 123.064 206.249 123.106 206.228C123.239 206.147 123.369 206.063 123.492 205.968C123.541 205.937 123.586 205.902 123.628 205.867C123.775 205.755 123.912 205.632 124.045 205.502C124.052 205.495 124.066 205.485 124.073 205.478C124.217 205.334 124.339 205.187 124.466 205.033C124.497 204.987 124.532 204.945 124.564 204.903C124.658 204.77 124.749 204.637 124.83 204.497C124.847 204.472 124.865 204.448 124.882 204.423L177.869 112.642C180.588 107.937 180.588 102.321 177.869 97.6165L177.883 97.613ZM115.431 182.963L71.9029 107.569C70.6277 105.366 71.4825 103.418 71.9029 102.686C72.3303 101.95 73.5879 100.244 76.1348 100.244H115.431V182.963ZM169.1 107.569L125.573 182.963V100.244H164.868C167.415 100.244 168.673 101.954 169.1 102.686C169.521 103.421 170.376 105.366 169.1 107.569Z" fill="#006FD6"/>
<path d="M120.5 201.228C118.689 201.228 117.014 200.262 116.107 198.692L63.1167 106.911C60.4017 102.206 60.4017 96.59 63.1167 91.8852C65.8317 87.1803 70.6977 84.3742 76.1277 84.3742H164.868C170.298 84.3742 175.164 87.1838 177.879 91.8852C180.594 96.59 180.594 102.206 177.879 106.911L124.889 198.692C123.982 200.262 122.311 201.228 120.496 201.228H120.5ZM76.1312 94.5161C73.5879 94.5161 72.3267 96.2222 71.9028 96.9579C71.4789 97.6936 70.6311 99.6379 71.9028 101.841L120.503 186.017L169.104 101.841C170.375 99.6379 169.528 97.6901 169.104 96.9579C168.68 96.2222 167.419 94.5161 164.875 94.5161H76.1347H76.1312Z" fill="white"/>
<path d="M120.5 201.228C117.701 201.228 115.431 198.958 115.431 196.159V89.4435C115.431 86.6444 117.701 84.3742 120.5 84.3742C123.299 84.3742 125.569 86.6444 125.569 89.4435V196.159C125.569 198.958 123.299 201.228 120.5 201.228Z" fill="white"/>
</svg>
